<?xml version="1.0" encoding="UTF-8" standalone="no"?><!DOCTYPE svg PUBLIC "-//W3C//DTD SVG 1.1//EN" "http://www.w3.org/Graphics/SVG/1.1/DTD/svg11.dtd"><!-- Generated by graphviz version 2.40.1 (20161225.0304)
 --><!-- Title: g Pages: 1 --><svg xmlns="http://www.w3.org/2000/svg" xmlns:xlink="http://www.w3.org/1999/xlink" width="1838pt" height="602pt" viewBox="0.00 0.00 1838.44 602.00">
<g id="graph0" class="graph" transform="scale(1 1) rotate(0) translate(4 598)">
<title>g</title>
<polygon fill="#ffffff" stroke="transparent" points="-4,4 -4,-598 1834.4354,-598 1834.4354,4 -4,4"/>
<g id="clust1" class="cluster">
<title>cluster_0</title>
</g>
<g id="clust2" class="cluster">
<title>cluster_1</title>
</g>
<g id="clust3" class="cluster">
<title>cluster_2</title>
</g>
<g id="clust4" class="cluster">
<title>cluster_3</title>
</g>
<g id="clust5" class="cluster">
<title>cluster_4</title>
</g>
<!-- n0 -->
<g id="node1" class="node">
<title>n0</title>
<polygon fill="none" stroke="#000000" points="756.8359,-393 16.0547,-393 16.0547,-357 756.8359,-357 756.8359,-393"/>
<text text-anchor="middle" x="386.4453" y="-370.8" font-family="Times,serif" font-size="14.00" fill="#000000">0/17/Pricer{General,[Instrument{0},Instrument{1},Instrument{2},Instrument{3},Instrument{4},Instrument{5},Instrument{6},]}</text>
</g>
<!-- n9 -->
<g id="node2" class="node">
<title>n9</title>
<polygon fill="none" stroke="#000000" points="1300.6176,-393 843.9816,-393 843.9816,-357 1300.6176,-357 1300.6176,-393"/>
<text text-anchor="middle" x="1072.2996" y="-370.8" font-family="Times,serif" font-size="14.00" fill="#000000">9/13/Pricer{IR,[Instrument{2},Instrument{4},Instrument{5},Instrument{6},]}</text>
</g>
<!-- n0&#45;&gt;n9 -->
<g id="edge9" class="edge">
<title>n0-&gt;n9</title>
<path fill="none" stroke="#000000" d="M756.9743,-375C782.9415,-375 808.6963,-375 833.6378,-375"/>
<polygon fill="#000000" stroke="#000000" points="833.8991,-378.5001 843.8991,-375 833.8991,-371.5001 833.8991,-378.5001"/>
<text text-anchor="middle" x="797.3906" y="-379.2" font-family="Times,serif" font-size="14.00" fill="#000000">1</text>
</g>
<!-- n8 -->
<g id="node3" class="node">
<title>n8</title>
<polygon fill="none" stroke="#000000" points="1173.8494,-555 970.7498,-555 970.7498,-519 1173.8494,-519 1173.8494,-555"/>
<text text-anchor="middle" x="1072.2996" y="-532.8" font-family="Times,serif" font-size="14.00" fill="#000000">8/14/Pricer{IR,[Instrument{3},]}</text>
</g>
<!-- n0&#45;&gt;n8 -->
<g id="edge8" class="edge">
<title>n0-&gt;n8</title>
<path fill="none" stroke="#000000" d="M437.1807,-393.0538C520.8299,-422.1175 693.4225,-479.1355 843.8906,-510 881.4328,-517.7008 922.9295,-523.4224 960.1389,-527.5665"/>
<polygon fill="#000000" stroke="#000000" points="960.1937,-531.093 970.5133,-528.6938 960.9499,-524.1339 960.1937,-531.093"/>
<text text-anchor="middle" x="797.3906" y="-504.2" font-family="Times,serif" font-size="14.00" fill="#000000">1</text>
</g>
<!-- n10 -->
<g id="node4" class="node">
<title>n10</title>
<polygon fill="none" stroke="#000000" points="1177.6349,-501 966.9643,-501 966.9643,-465 1177.6349,-465 1177.6349,-501"/>
<text text-anchor="middle" x="1072.2996" y="-478.8" font-family="Times,serif" font-size="14.00" fill="#000000">10/15/Pricer{S3,[Instrument{0},]}</text>
</g>
<!-- n0&#45;&gt;n10 -->
<g id="edge10" class="edge">
<title>n0-&gt;n10</title>
<path fill="none" stroke="#000000" d="M479.0597,-393.0143C571.2875,-410.5716 717.0252,-437.2855 843.8906,-456 880.5404,-461.4064 920.6253,-466.4403 956.8418,-470.6617"/>
<polygon fill="#000000" stroke="#000000" points="956.6121,-474.1584 966.948,-471.8304 957.4163,-467.2047 956.6121,-474.1584"/>
<text text-anchor="middle" x="797.3906" y="-453.2" font-family="Times,serif" font-size="14.00" fill="#000000">1</text>
</g>
<!-- n11 -->
<g id="node5" class="node">
<title>n11</title>
<polygon fill="none" stroke="#000000" points="1177.6349,-447 966.9643,-447 966.9643,-411 1177.6349,-411 1177.6349,-447"/>
<text text-anchor="middle" x="1072.2996" y="-424.8" font-family="Times,serif" font-size="14.00" fill="#000000">11/16/Pricer{S3,[Instrument{1},]}</text>
</g>
<!-- n0&#45;&gt;n11 -->
<g id="edge11" class="edge">
<title>n0-&gt;n11</title>
<path fill="none" stroke="#000000" d="M615.3015,-393.0187C729.9371,-402.0445 863.7658,-412.5813 956.8549,-419.9106"/>
<polygon fill="#000000" stroke="#000000" points="956.6216,-423.403 966.8655,-420.6988 957.1711,-416.4246 956.6216,-423.403"/>
<text text-anchor="middle" x="797.3906" y="-411.2" font-family="Times,serif" font-size="14.00" fill="#000000">1</text>
</g>
<!-- n1 -->
<g id="node6" class="node">
<title>n1</title>
<polygon fill="none" stroke="#000000" points="1505.6101,-322 1386.8687,-322 1386.8687,-286 1505.6101,-286 1505.6101,-322"/>
<text text-anchor="middle" x="1446.2394" y="-299.8" font-family="Times,serif" font-size="14.00" fill="#000000">1/0/Instrument{0}</text>
</g>
<!-- n0&#45;&gt;n1 -->
<g id="edge1" class="edge">
<title>n0-&gt;n1</title>
<path fill="none" stroke="#000000" d="M525.9432,-356.9616C610.5519,-346.674 720.7727,-334.4272 818.8906,-327.2 1020.9428,-312.3171 1260.3423,-306.8155 1376.3156,-304.9183"/>
<polygon fill="#000000" stroke="#000000" points="1376.5316,-308.4154 1386.4745,-304.7563 1376.4199,-301.4163 1376.5316,-308.4154"/>
<text text-anchor="middle" x="822.3906" y="-331.2" font-family="Times,serif" font-size="14.00" fill="#000000">0</text>
</g>
<!-- n2 -->
<g id="node7" class="node">
<title>n2</title>
<polygon fill="none" stroke="#000000" points="1505.6101,-268 1386.8687,-268 1386.8687,-232 1505.6101,-232 1505.6101,-268"/>
<text text-anchor="middle" x="1446.2394" y="-245.8" font-family="Times,serif" font-size="14.00" fill="#000000">2/1/Instrument{1}</text>
</g>
<!-- n0&#45;&gt;n2 -->
<g id="edge2" class="edge">
<title>n0-&gt;n2</title>
<path fill="none" stroke="#000000" d="M479.908,-356.9836C647.2785,-325.8383 1009.5852,-263.4881 1318.7086,-245 1337.551,-243.8731 1357.9753,-244.0498 1376.8422,-244.7874"/>
<polygon fill="#000000" stroke="#000000" points="1376.699,-248.2844 1386.8455,-245.2352 1377.0121,-241.2914 1376.699,-248.2844"/>
<text text-anchor="middle" x="822.3906" y="-304.2" font-family="Times,serif" font-size="14.00" fill="#000000">0</text>
</g>
<!-- n3 -->
<g id="node8" class="node">
<title>n3</title>
<polygon fill="none" stroke="#000000" points="1505.6101,-160 1386.8687,-160 1386.8687,-124 1505.6101,-124 1505.6101,-160"/>
<text text-anchor="middle" x="1446.2394" y="-137.8" font-family="Times,serif" font-size="14.00" fill="#000000">3/2/Instrument{2}</text>
</g>
<!-- n0&#45;&gt;n3 -->
<g id="edge3" class="edge">
<title>n0-&gt;n3</title>
<path fill="none" stroke="#000000" d="M418.8199,-356.9845C492.0341,-317.1369 676.9749,-221.4666 843.8906,-176 1049.0157,-120.1255 1106.5023,-130.9127 1318.7086,-118 1337.6752,-116.8459 1357.9871,-119.0573 1376.699,-122.5419"/>
<polygon fill="#000000" stroke="#000000" points="1376.1226,-125.9959 1386.6158,-124.5319 1377.4999,-119.1327 1376.1226,-125.9959"/>
<text text-anchor="middle" x="822.3906" y="-187.2" font-family="Times,serif" font-size="14.00" fill="#000000">0</text>
</g>
<!-- n4 -->
<g id="node9" class="node">
<title>n4</title>
<polygon fill="none" stroke="#000000" points="1505.6101,-376 1386.8687,-376 1386.8687,-340 1505.6101,-340 1505.6101,-376"/>
<text text-anchor="middle" x="1446.2394" y="-353.8" font-family="Times,serif" font-size="14.00" fill="#000000">4/3/Instrument{3}</text>
</g>
<!-- n0&#45;&gt;n4 -->
<g id="edge4" class="edge">
<title>n0-&gt;n4</title>
<path fill="none" stroke="#000000" d="M646.3843,-356.9916C710.888,-353.2578 779.876,-349.8875 843.8906,-348 1050.3866,-341.9112 1102.2589,-340.5043 1308.7086,-348 1330.8076,-348.8024 1354.8646,-350.3276 1376.5895,-351.9497"/>
<polygon fill="#000000" stroke="#000000" points="1376.4807,-355.4515 1386.7187,-352.7251 1377.0151,-348.4719 1376.4807,-355.4515"/>
<text text-anchor="middle" x="822.3906" y="-352.2" font-family="Times,serif" font-size="14.00" fill="#000000">0</text>
</g>
<!-- n5 -->
<g id="node10" class="node">
<title>n5</title>
<polygon fill="none" stroke="#000000" points="1505.6101,-214 1386.8687,-214 1386.8687,-178 1505.6101,-178 1505.6101,-214"/>
<text text-anchor="middle" x="1446.2394" y="-191.8" font-family="Times,serif" font-size="14.00" fill="#000000">5/4/Instrument{4}</text>
</g>
<!-- n0&#45;&gt;n5 -->
<g id="edge5" class="edge">
<title>n0-&gt;n5</title>
<path fill="none" stroke="#000000" d="M438.2494,-356.9182C522.3444,-328.2283 694.245,-272.3275 843.8906,-241 1052.1408,-197.4039 1106.3781,-193.5833 1318.7086,-180 1337.5849,-178.7924 1357.9429,-180.1388 1376.7318,-182.4801"/>
<polygon fill="#000000" stroke="#000000" points="1376.313,-185.9553 1386.6925,-183.8299 1377.2531,-179.0187 1376.313,-185.9553"/>
<text text-anchor="middle" x="822.3906" y="-250.2" font-family="Times,serif" font-size="14.00" fill="#000000">0</text>
</g>
<!-- n6 -->
<g id="node11" class="node">
<title>n6</title>
<polygon fill="none" stroke="#000000" points="1505.6101,-52 1386.8687,-52 1386.8687,-16 1505.6101,-16 1505.6101,-52"/>
<text text-anchor="middle" x="1446.2394" y="-29.8" font-family="Times,serif" font-size="14.00" fill="#000000">6/5/Instrument{5}</text>
</g>
<!-- n0&#45;&gt;n6 -->
<g id="edge6" class="edge">
<title>n0-&gt;n6</title>
<path fill="none" stroke="#000000" d="M404.803,-356.6582C462.872,-300.0355 650.198,-127.9069 843.8906,-63 1028.1826,-1.2433 1261.9534,-13.8056 1376.5231,-25.3744"/>
<polygon fill="#000000" stroke="#000000" points="1376.2582,-28.8657 1386.5663,-26.4171 1376.9812,-21.9031 1376.2582,-28.8657"/>
<text text-anchor="middle" x="822.3906" y="-76.2" font-family="Times,serif" font-size="14.00" fill="#000000">0</text>
</g>
<!-- n7 -->
<g id="node12" class="node">
<title>n7</title>
<polygon fill="none" stroke="#000000" points="1505.6101,-106 1386.8687,-106 1386.8687,-70 1505.6101,-70 1505.6101,-106"/>
<text text-anchor="middle" x="1446.2394" y="-83.8" font-family="Times,serif" font-size="14.00" fill="#000000">7/6/Instrument{6}</text>
</g>
<!-- n0&#45;&gt;n7 -->
<g id="edge7" class="edge">
<title>n0-&gt;n7</title>
<path fill="none" stroke="#000000" d="M410.0227,-356.6705C474.8846,-307.3778 663.1845,-171.8095 843.8906,-114 1045.9106,-49.372 1106.8719,-76.6802 1318.7086,-66 1337.6343,-65.0458 1357.9322,-67.1083 1376.6438,-70.3034"/>
<polygon fill="#000000" stroke="#000000" points="1376.0939,-73.7608 1386.5617,-72.1248 1377.3584,-66.876 1376.0939,-73.7608"/>
<text text-anchor="middle" x="822.3906" y="-126.2" font-family="Times,serif" font-size="14.00" fill="#000000">0</text>
</g>
<!-- n9&#45;&gt;n3 -->
<g id="edge12" class="edge">
<title>n9-&gt;n3</title>
<path fill="none" stroke="#000000" d="M1089.9003,-356.7131C1129.7421,-316.417 1231.5024,-219.5487 1335.7086,-169 1348.4371,-162.8256 1362.6943,-157.9928 1376.6287,-154.2341"/>
<polygon fill="#000000" stroke="#000000" points="1377.8583,-157.5332 1386.6916,-151.6832 1376.1382,-150.7478 1377.8583,-157.5332"/>
<text text-anchor="middle" x="1322.2086" y="-181.2" font-family="Times,serif" font-size="14.00" fill="#000000">0</text>
</g>
<!-- n9&#45;&gt;n5 -->
<g id="edge13" class="edge">
<title>n9-&gt;n5</title>
<path fill="none" stroke="#000000" d="M1097.9517,-356.8494C1143.6566,-325.2951 1243.0929,-260.1508 1335.7086,-223 1348.6911,-217.7924 1362.9485,-213.3998 1376.7822,-209.7699"/>
<polygon fill="#000000" stroke="#000000" points="1377.9122,-213.0948 1386.7561,-207.2608 1376.2043,-206.3063 1377.9122,-213.0948"/>
<text text-anchor="middle" x="1322.2086" y="-233.2" font-family="Times,serif" font-size="14.00" fill="#000000">0</text>
</g>
<!-- n9&#45;&gt;n6 -->
<g id="edge14" class="edge">
<title>n9-&gt;n6</title>
<path fill="none" stroke="#000000" d="M1082.0359,-356.6517C1111.9383,-302.1785 1208.2008,-140.2655 1335.7086,-61 1348.1125,-53.2891 1362.5715,-47.78 1376.8638,-43.8442"/>
<polygon fill="#000000" stroke="#000000" points="1377.8637,-47.2017 1386.7046,-41.363 1376.1523,-40.4141 1377.8637,-47.2017"/>
<text text-anchor="middle" x="1322.2086" y="-74.2" font-family="Times,serif" font-size="14.00" fill="#000000">0</text>
</g>
<!-- n9&#45;&gt;n7 -->
<g id="edge15" class="edge">
<title>n9-&gt;n7</title>
<path fill="none" stroke="#000000" d="M1085.0415,-356.8522C1119.5141,-309.1896 1219.856,-179.6868 1335.7086,-115 1348.3206,-107.958 1362.7461,-102.736 1376.9199,-98.8689"/>
<polygon fill="#000000" stroke="#000000" points="1377.8312,-102.2487 1386.6669,-96.4024 1376.1139,-95.4626 1377.8312,-102.2487"/>
<text text-anchor="middle" x="1322.2086" y="-126.2" font-family="Times,serif" font-size="14.00" fill="#000000">0</text>
</g>
<!-- n12 -->
<g id="node14" class="node">
<title>n12</title>
<polygon fill="none" stroke="#000000" points="1797.1614,-524 1609.0442,-524 1609.0442,-488 1797.1614,-488 1797.1614,-524"/>
<text text-anchor="middle" x="1703.1028" y="-501.8" font-family="Times,serif" font-size="14.00" fill="#000000">12/7/InterestRateCurve{USD}</text>
</g>
<!-- n9&#45;&gt;n12 -->
<g id="edge16" class="edge">
<title>n9-&gt;n12</title>
<path fill="none" stroke="#000000" d="M1299.1189,-393.3728C1302.4511,-396.0493 1305.6534,-398.9211 1308.7086,-402 1323.5051,-416.9113 1305.6844,-479.5181 1318.7086,-496 1326.5653,-505.9425 1363.0092,-507.5928 1566.7702,-512 1577.0913,-512.2232 1587.8487,-512.1966 1598.5948,-511.9988"/>
<polygon fill="#000000" stroke="#000000" points="1598.964,-515.4913 1608.8797,-511.7592 1598.8009,-508.4931 1598.964,-515.4913"/>
<text text-anchor="middle" x="1446.2394" y="-515.2" font-family="Times,serif" font-size="14.00" fill="#000000">1</text>
</g>
<!-- n8&#45;&gt;n4 -->
<g id="edge17" class="edge">
<title>n8-&gt;n4</title>
<path fill="none" stroke="#000000" d="M1173.8721,-538.0292C1216.8967,-535.2999 1266.6879,-527.8315 1308.7086,-510 1317.7188,-506.1765 1321.1272,-504.6495 1325.7086,-496 1336.9902,-474.7006 1320.1988,-406.4495 1335.7086,-388 1346.1984,-375.5219 1361.3056,-367.9593 1376.9969,-363.4435"/>
<polygon fill="#000000" stroke="#000000" points="1377.944,-366.8147 1386.8064,-361.0088 1376.2577,-360.0208 1377.944,-366.8147"/>
<text text-anchor="middle" x="1322.2086" y="-508.2" font-family="Times,serif" font-size="14.00" fill="#000000">0</text>
</g>
<!-- n13 -->
<g id="node13" class="node">
<title>n13</title>
<polygon fill="none" stroke="#000000" points="1797.1614,-578 1609.0442,-578 1609.0442,-542 1797.1614,-542 1797.1614,-578"/>
<text text-anchor="middle" x="1703.1028" y="-555.8" font-family="Times,serif" font-size="14.00" fill="#000000">13/8/InterestRateCurve{EUR}</text>
</g>
<!-- n8&#45;&gt;n13 -->
<g id="edge18" class="edge">
<title>n8-&gt;n13</title>
<path fill="none" stroke="#000000" d="M1173.9294,-540.9194C1222.8373,-542.7899 1282.3154,-545.0419 1335.7086,-547 1424.3408,-550.2505 1525.006,-553.8027 1598.524,-556.3712"/>
<polygon fill="#000000" stroke="#000000" points="1598.5974,-559.8758 1608.7135,-556.727 1598.8418,-552.8801 1598.5974,-559.8758"/>
<text text-anchor="middle" x="1446.2394" y="-558.2" font-family="Times,serif" font-size="14.00" fill="#000000">1</text>
</g>
<!-- n10&#45;&gt;n1 -->
<g id="edge19" class="edge">
<title>n10-&gt;n1</title>
<path fill="none" stroke="#000000" d="M1177.8206,-497.0376C1223.5074,-497.1418 1274.2911,-488.2949 1308.7086,-456 1317.8952,-447.38 1316.0935,-412.5231 1318.7086,-400.2 1321.9958,-384.7099 1324.5042,-342.1897 1335.7086,-331 1346.7729,-319.9502 1361.5631,-313.1524 1376.7172,-309.0335"/>
<polygon fill="#000000" stroke="#000000" points="1377.7549,-312.3852 1386.6926,-306.6959 1376.1578,-305.5699 1377.7549,-312.3852"/>
<text text-anchor="middle" x="1322.2086" y="-404.2" font-family="Times,serif" font-size="14.00" fill="#000000">0</text>
</g>
<!-- n14 -->
<g id="node17" class="node">
<title>n14</title>
<polygon fill="none" stroke="#000000" points="1548.801,-490 1343.6778,-490 1343.6778,-454 1548.801,-454 1548.801,-490"/>
<text text-anchor="middle" x="1446.2394" y="-467.8" font-family="Times,serif" font-size="14.00" fill="#000000">14/11/S3Model{BNP,EUR,&lt;...&gt;}</text>
</g>
<!-- n10&#45;&gt;n14 -->
<g id="edge20" class="edge">
<title>n10-&gt;n14</title>
<path fill="none" stroke="#000000" d="M1177.9563,-479.8919C1226.449,-478.4655 1284.0049,-476.7724 1333.349,-475.3208"/>
<polygon fill="#000000" stroke="#000000" points="1333.5321,-478.8171 1343.4249,-475.0244 1333.3263,-471.8201 1333.5321,-478.8171"/>
<text text-anchor="middle" x="1322.2086" y="-479.2" font-family="Times,serif" font-size="14.00" fill="#000000">1</text>
</g>
<!-- n11&#45;&gt;n2 -->
<g id="edge21" class="edge">
<title>n11-&gt;n2</title>
<path fill="none" stroke="#000000" d="M1177.9167,-443.4531C1223.7626,-443.6826 1274.6477,-434.8199 1308.7086,-402 1319.359,-391.7376 1315.5498,-350.6489 1318.7086,-336.2 1324.555,-309.4571 1315.9682,-295.9652 1335.7086,-277 1346.9264,-266.2228 1361.702,-259.5211 1376.7849,-255.4074"/>
<polygon fill="#000000" stroke="#000000" points="1377.7806,-258.7685 1386.7067,-253.061 1376.1696,-251.9564 1377.7806,-258.7685"/>
<text text-anchor="middle" x="1322.2086" y="-340.2" font-family="Times,serif" font-size="14.00" fill="#000000">0</text>
</g>
<!-- n16 -->
<g id="node18" class="node">
<title>n16</title>
<polygon fill="none" stroke="#000000" points="1547.7476,-436 1344.7312,-436 1344.7312,-400 1547.7476,-400 1547.7476,-436"/>
<text text-anchor="middle" x="1446.2394" y="-413.8" font-family="Times,serif" font-size="14.00" fill="#000000">16/12/S3Model{JPM,USD,&lt;...&gt;}</text>
</g>
<!-- n11&#45;&gt;n16 -->
<g id="edge22" class="edge">
<title>n11-&gt;n16</title>
<path fill="none" stroke="#000000" d="M1177.9563,-425.8919C1226.8531,-424.4536 1284.9648,-422.7441 1334.5809,-421.2846"/>
<polygon fill="#000000" stroke="#000000" points="1334.8161,-424.7793 1344.7088,-420.9867 1334.6102,-417.7823 1334.8161,-424.7793"/>
<text text-anchor="middle" x="1322.2086" y="-425.2" font-family="Times,serif" font-size="14.00" fill="#000000">1</text>
</g>
<!-- n15 -->
<g id="node15" class="node">
<title>n15</title>
<polygon fill="none" stroke="#000000" points="1811.8221,-459 1594.3835,-459 1594.3835,-423 1811.8221,-423 1811.8221,-459"/>
<text text-anchor="middle" x="1703.1028" y="-436.8" font-family="Times,serif" font-size="14.00" fill="#000000">15/9/HazardRateCurve{BNP,EUR}</text>
</g>
<!-- n17 -->
<g id="node16" class="node">
<title>n17</title>
<polygon fill="none" stroke="#000000" points="1814.2683,-405 1591.9373,-405 1591.9373,-369 1814.2683,-369 1814.2683,-405"/>
<text text-anchor="middle" x="1703.1028" y="-382.8" font-family="Times,serif" font-size="14.00" fill="#000000">17/10/HazardRateCurve{JPM,USD}</text>
</g>
<!-- n14&#45;&gt;n13 -->
<g id="edge23" class="edge">
<title>n14-&gt;n13</title>
<path fill="none" stroke="#000000" d="M1527.796,-490.0977C1537.9189,-493.918 1547.8368,-498.505 1556.7702,-504 1571.77,-513.2265 1568.5034,-524.2222 1583.7702,-533 1588.7838,-535.8826 1594.0808,-538.4575 1599.5441,-540.7575"/>
<polygon fill="#000000" stroke="#000000" points="1598.2859,-544.0234 1608.8749,-544.3744 1600.8159,-537.4966 1598.2859,-544.0234"/>
<text text-anchor="middle" x="1570.2702" y="-528.2" font-family="Times,serif" font-size="14.00" fill="#000000">0</text>
</g>
<!-- n14&#45;&gt;n15 -->
<g id="edge24" class="edge">
<title>n14-&gt;n15</title>
<path fill="none" stroke="#000000" d="M1548.7857,-457.4601C1554.868,-456.6743 1560.8978,-455.9149 1566.7702,-455.2 1572.5208,-454.5 1578.4105,-453.8047 1584.3609,-453.1195"/>
<polygon fill="#000000" stroke="#000000" points="1584.8774,-456.5834 1594.4184,-451.977 1584.0872,-449.6282 1584.8774,-456.5834"/>
<text text-anchor="middle" x="1570.2702" y="-459.2" font-family="Times,serif" font-size="14.00" fill="#000000">0</text>
</g>
<!-- n16&#45;&gt;n12 -->
<g id="edge25" class="edge">
<title>n16-&gt;n12</title>
<path fill="none" stroke="#000000" d="M1547.8982,-418.5432C1557.3446,-421.8813 1566.1963,-426.6186 1573.7702,-433.2 1586.8876,-444.5985 1571.6471,-458.5492 1583.7702,-471 1588.577,-475.9367 1594.0399,-480.1865 1599.9205,-483.8439"/>
<polygon fill="#000000" stroke="#000000" points="1598.3676,-486.9852 1608.8077,-488.7896 1601.7716,-480.8685 1598.3676,-486.9852"/>
<text text-anchor="middle" x="1570.2702" y="-437.2" font-family="Times,serif" font-size="14.00" fill="#000000">0</text>
</g>
<!-- n16&#45;&gt;n17 -->
<g id="edge26" class="edge">
<title>n16-&gt;n17</title>
<path fill="none" stroke="#000000" d="M1533.9547,-399.9621C1541.9827,-396.6256 1549.731,-392.6756 1556.7702,-388 1562.7837,-384.0057 1560.2817,-378.3648 1566.7702,-375.2 1587.6956,-364.9937 1612.5784,-364.3306 1635.3224,-367.4"/>
<polygon fill="#000000" stroke="#000000" points="1634.832,-370.866 1645.2593,-368.989 1635.9374,-363.9538 1634.832,-370.866"/>
<text text-anchor="middle" x="1570.2702" y="-379.2" font-family="Times,serif" font-size="14.00" fill="#000000">0</text>
</g>
</g>
</svg>